HIERARCHY
ROOT joint_Root
{
	OFFSET 0.0 0.0 0.0
	CHANNELS 6 Xposition Yposition Zposition Zrotation Xrotation Yrotation 
	JOINT Hips
	{
		OFFSET -17.1583 93.1646 452.98
		CHANNELS 6 Xposition Yposition Zposition Zrotation Xrotation Yrotation 
		JOINT Spine
		{
			OFFSET 15.7357 0.0 0.0
			CHANNELS 6 Xposition Yposition Zposition Zrotation Xrotation Yrotation 
			JOINT Chest
			{
				OFFSET 8.98455 -0.406207 0.0
				CHANNELS 6 Xposition Yposition Zposition Zrotation Xrotation Yrotation 
				JOINT Neck
				{
					OFFSET 16.3773 0.0 0.0
					CHANNELS 6 Xposition Yposition Zposition Zrotation Xrotation Yrotation 
					JOINT Head
					{
						OFFSET 6.45672 0.0 0.0
						CHANNELS 6 Xposition Yposition Zposition Zrotation Xrotation Yrotation 
						End Site
						{
							OFFSET 0.0 0.0 0.0
						}
					}
				}
				JOINT Shoulder_L
				{
					OFFSET 12.9942 -0.242716 4.98039
					CHANNELS 6 Xposition Yposition Zposition Zrotation Xrotation Yrotation 
					JOINT UpperArm_L
					{
						OFFSET 5.34809 0.0 0.0
						CHANNELS 6 Xposition Yposition Zposition Zrotation Xrotation Yrotation 
						JOINT LowerArm_L
						{
							OFFSET 24.3286 1.87007e-05 0.0
							CHANNELS 6 Xposition Yposition Zposition Zrotation Xrotation Yrotation 
							JOINT Hand_L
							{
								OFFSET 22.2916 0.0 0.0
								CHANNELS 6 Xposition Yposition Zposition Zrotation Xrotation Yrotation 
								End Site
								{
									OFFSET 0.0 0.0 0.0
								}
							}
						}
					}
				}
				JOINT Shoulder_R
				{
					OFFSET 12.9945 -0.242716 -4.98039
					CHANNELS 6 Xposition Yposition Zposition Zrotation Xrotation Yrotation 
					JOINT UpperArm_R
					{
						OFFSET -5.34813 0.0 0.0
						CHANNELS 6 Xposition Yposition Zposition Zrotation Xrotation Yrotation 
						JOINT LowerArm_R
						{
							OFFSET -24.3289 0.000322201 0.0
							CHANNELS 6 Xposition Yposition Zposition Zrotation Xrotation Yrotation 
							JOINT Hand_R
							{
								OFFSET -22.2915 -0.000108084 0.0
								CHANNELS 6 Xposition Yposition Zposition Zrotation Xrotation Yrotation 
								End Site
								{
									OFFSET 0.0 0.0 0.0
								}
							}
						}
					}
				}
			}
		}
		JOINT UpperLeg_L
		{
			OFFSET -2.19248 -6.46944 0.0
			CHANNELS 6 Xposition Yposition Zposition Zrotation Xrotation Yrotation 
			JOINT LowerLeg_L
			{
				OFFSET 39.0811 0.0 -1.23785e-05
				CHANNELS 6 Xposition Yposition Zposition Zrotation Xrotation Yrotation 
				JOINT Foot_L
				{
					OFFSET 40.9854 0.0 -1.26872e-05
					CHANNELS 6 Xposition Yposition Zposition Zrotation Xrotation Yrotation 
					JOINT Toes_L
					{
						OFFSET 11.7543 0.0 0.0
						CHANNELS 6 Xposition Yposition Zposition Zrotation Xrotation Yrotation 
						End Site
						{
							OFFSET 0.0 0.0 0.0
						}
					}
				}
			}
		}
		JOINT UpperLeg_R
		{
			OFFSET -2.19251 6.46944 0.0
			CHANNELS 6 Xposition Yposition Zposition Zrotation Xrotation Yrotation 
			JOINT LowerLeg_R
			{
				OFFSET -39.0811 -0.00228153 -0.0401928
				CHANNELS 6 Xposition Yposition Zposition Zrotation Xrotation Yrotation 
				JOINT Foot_R
				{
					OFFSET -40.9854 0.0 0.0
					CHANNELS 6 Xposition Yposition Zposition Zrotation Xrotation Yrotation 
					JOINT Toes_R
					{
						OFFSET -11.7543 0.0 0.0
						CHANNELS 6 Xposition Yposition Zposition Zrotation Xrotation Yrotation 
						End Site
						{
							OFFSET 0.0 0.0 0.0
						}
					}
				}
			}
		}
	}
}
MOTION
Frames:	6
Frame Time:	0.0333333
0.000000 0.000000 0.000000 0.000000 0.000000 -0.000000 -1.585610 92.779500 -1.771320 87.244500 3.110730 2.383010 15.735700 0.000005 -0.000001 70.604600 86.942100 -68.874100 8.984550 -0.406207 -0.000000 -1.962530 -2.177310 3.423420 16.377300 -0.000001 -0.000001 4.301750 2.201650 -2.678500 6.456720 -0.000001 -0.000000 1.741190 1.763400 -2.100700 12.994200 -0.242716 4.980390 -92.915700 8.375620 -70.727300 5.348090 -0.000007 -0.000001 -73.271500 24.646700 2.501530 24.328600 0.000019 0.000005 12.038800 24.887700 -26.873800 22.291600 -0.000001 0.000005 -0.806126 4.929990 8.774070 12.994500 -0.242716 -4.980390 88.399500 4.895780 -71.872000 -5.348130 -0.000001 -0.000004 -70.759500 26.024500 -1.869650 -24.328900 0.000322 -0.000009 3.222200 9.000820 -19.796200 -22.291500 -0.000108 -0.000004 0.395780 5.268200 0.946983 -2.192480 -6.469440 -0.000000 -175.965000 4.891360 -3.651950 39.081100 -0.000007 -0.000012 0.217871 -0.547159 21.712200 40.985400 -0.000006 -0.000013 1.878850 9.905420 -71.915100 11.754300 -0.000000 0.000003 0.000493 0.158860 -10.133900 -2.192510 6.469440 -0.000001 -174.232000 8.177600 -177.824000 -39.081100 -0.002282 -0.040193 0.073818 -0.305703 12.983500 -40.985400 0.000008 0.000006 2.854880 -0.121237 -69.419400 -11.754300 -0.000006 -0.000006 -0.010939 0.278195 -5.269100
0.000000 0.000000 0.000000 0.000000 0.000000 -0.000000 -1.570740 92.788900 -1.772350 87.258200 3.356520 2.279490 15.735700 0.000005 -0.000001 69.721900 86.905400 -67.964300 8.984550 -0.406207 -0.000000 -1.923430 -2.293010 3.476470 16.377300 -0.000001 -0.000001 4.132710 2.157600 -2.575950 6.456720 -0.000001 -0.000000 1.528790 1.785530 -2.059320 12.994200 -0.242716 4.980390 -92.943200 8.433050 -70.680400 5.348090 -0.000007 -0.000001 -73.198600 22.192500 2.485740 24.328600 0.000019 0.000005 12.186400 24.812100 -27.231400 22.291600 -0.000001 0.000005 -0.815258 4.929030 8.793850 12.994500 -0.242716 -4.980390 88.362200 4.954680 -71.682800 -5.348130 -0.000001 -0.000004 -70.192300 23.644600 -1.563810 -24.328900 0.000322 -0.000009 3.661540 9.504540 -21.188300 -22.291500 -0.000108 -0.000004 -0.724253 5.259560 1.180740 -2.192480 -6.469440 -0.000000 -175.966000 4.985260 -3.767930 39.081100 -0.000007 -0.000012 0.218038 -0.549033 21.659900 40.985400 -0.000006 -0.000013 1.909960 10.068500 -71.897500 11.754300 -0.000000 0.000003 0.000390 0.160776 -10.056100 -2.192510 6.469440 -0.000001 -174.208000 8.106210 -177.885000 -39.081100 -0.002282 -0.040193 0.071434 -0.297915 12.876000 -40.985400 0.000008 0.000006 2.801090 -0.437895 -69.376900 -11.754300 -0.000006 -0.000006 -0.011088 0.279262 -5.225430
0.000000 0.000000 0.000000 0.000000 0.000000 -0.000000 -1.550990 92.795300 -1.779530 87.238900 3.626950 2.223400 15.735700 0.000005 -0.000001 68.818000 86.843200 -67.017400 8.984550 -0.406207 -0.000000 -1.838830 -2.431580 3.561860 16.377300 -0.000001 -0.000001 3.947710 2.095020 -2.446080 6.456720 -0.000001 -0.000000 1.205380 1.824490 -1.905000 12.994200 -0.242716 4.980390 -92.976500 8.503300 -70.625900 5.348090 -0.000007 -0.000001 -73.067000 18.202400 2.665300 24.328600 0.000019 0.000005 12.168900 23.860600 -28.061800 22.291600 -0.000001 0.000005 -1.096800 4.922630 8.923410 12.994500 -0.242716 -4.980390 88.313300 5.044510 -71.484600 -5.348130 -0.000001 -0.000004 -69.382900 19.887300 -1.072060 -24.328900 0.000322 -0.000009 4.314610 10.056500 -23.371300 -22.291500 -0.000108 -0.000004 -2.179360 5.233130 1.878150 -2.192480 -6.469440 -0.000000 -175.941000 5.093150 -3.877620 39.081100 -0.000007 -0.000012 0.217774 -0.548381 21.659500 40.985400 -0.000006 -0.000013 1.940810 10.209200 -71.862900 11.754300 -0.000000 0.000003 0.000423 0.160172 -10.080700 -2.192510 6.469440 -0.000001 -174.147000 7.829760 -177.943000 -39.081100 -0.002282 -0.040193 0.068768 -0.287247 12.832900 -40.985400 0.000008 0.000006 2.598550 -0.884358 -69.312800 -11.754300 -0.000006 -0.000006 -0.011125 0.279525 -5.214640
0.000000 0.000000 0.000000 0.000000 0.000000 -0.000000 -1.545060 92.795500 -1.804630 87.195500 3.806370 2.136450 15.735700 0.000005 -0.000001 68.354400 86.801500 -66.502200 8.984550 -0.406207 -0.000000 -1.777290 -2.513260 3.665030 16.377300 -0.000001 -0.000001 3.757930 1.952450 -2.177740 6.456720 -0.000001 -0.000000 0.852333 1.909460 -1.763780 12.994200 -0.242716 4.980390 -93.023600 8.621570 -70.590100 5.348090 -0.000007 -0.000001 -72.778100 12.951100 3.293930 24.328600 0.000019 0.000005 12.697000 22.551700 -30.434200 22.291600 -0.000001 0.000005 -1.043690 4.906490 9.248040 12.994500 -0.242716 -4.980390 88.290400 5.066150 -71.325400 -5.348130 -0.000001 -0.000004 -68.508800 14.547400 -0.381418 -24.328900 0.000322 -0.000009 4.920140 10.037000 -26.291700 -22.291500 -0.000108 -0.000004 -3.631870 5.191310 2.940050 -2.192480 -6.469440 -0.000000 -175.886000 5.180350 -4.050040 39.081100 -0.000007 -0.000012 0.217654 -0.546482 21.716900 40.985400 -0.000006 -0.000013 1.963720 10.307800 -71.806900 11.754300 -0.000000 0.000003 0.000569 0.157427 -10.192100 -2.192510 6.469440 -0.000001 -174.051000 7.558650 -178.099000 -39.081100 -0.002282 -0.040193 0.067487 -0.280387 12.887500 -40.985400 0.000008 0.000006 2.374040 -1.298630 -69.279800 -11.754300 -0.000006 -0.000006 -0.011085 0.279243 -5.226190
0.000000 0.000000 0.000000 0.000000 0.000000 -0.000000 -1.545740 92.791000 -1.817790 87.162800 4.060860 2.138230 15.735700 0.000005 -0.000001 67.809100 86.728500 -65.921000 8.984550 -0.406207 -0.000000 -1.662050 -2.625970 3.737790 16.377300 -0.000001 -0.000001 3.572850 1.796390 -1.904380 6.456720 -0.000001 -0.000000 0.393332 1.862980 -1.363830 12.994200 -0.242716 4.980390 -93.071200 8.753220 -70.578800 5.348090 -0.000007 -0.000001 -72.124600 7.722930 4.541710 24.328600 0.000019 0.000005 13.734300 20.365900 -35.081700 22.291600 -0.000001 0.000005 0.035401 4.913030 9.119450 12.994500 -0.242716 -4.980390 88.274800 5.034920 -71.058100 -5.348130 -0.000001 -0.000004 -67.516500 8.513530 0.360395 -24.328900 0.000322 -0.000009 4.802300 8.450620 -29.768000 -22.291500 -0.000108 -0.000004 -3.890140 5.139210 4.197930 -2.192480 -6.469440 -0.000000 -175.842000 5.395350 -4.139570 39.081100 -0.000007 -0.000012 0.218074 -0.544977 21.809300 40.985400 -0.000006 -0.000013 1.965960 10.364000 -71.874700 11.754300 -0.000000 0.000003 0.000552 0.157752 -10.178900 -2.192510 6.469440 -0.000001 -173.964000 7.439500 -178.111000 -39.081100 -0.002282 -0.040193 0.066828 -0.277993 12.865800 -40.985400 0.000008 0.000006 2.358140 -1.687360 -69.282700 -11.754300 -0.000006 -0.000006 -0.011194 0.280017 -5.194490
0.000000 0.000000 0.000000 0.000000 0.000000 -0.000000 -1.579290 92.777700 -1.853450 87.077100 4.206710 2.062750 15.735700 0.000005 -0.000001 67.594400 86.698600 -65.663500 8.984550 -0.406207 -0.000000 -1.614230 -2.674120 3.823730 16.377300 -0.000001 -0.000001 3.488390 1.627810 -1.580890 6.456720 -0.000001 -0.000000 -0.218709 1.766350 -0.747416 12.994200 -0.242716 4.980390 -93.110900 8.793590 -70.429100 5.348090 -0.000007 -0.000001 -71.209000 2.772990 5.736540 24.328600 0.000019 0.000005 14.769500 17.800600 -40.777000 22.291600 -0.000001 0.000005 1.944510 4.904960 9.275050 12.994500 -0.242716 -4.980390 88.274800 4.981220 -70.868900 -5.348130 -0.000001 -0.000004 -66.338000 2.544520 1.138200 -24.328900 0.000322 -0.000009 4.107450 6.155220 -33.827400 -22.291500 -0.000108 -0.000004 -2.943260 5.099620 5.119880 -2.192480 -6.469440 -0.000000 -175.737000 5.590180 -4.370270 39.081100 -0.000007 -0.000012 0.222740 -0.551287 22.000900 40.985400 -0.000006 -0.000013 1.943170 10.317500 -71.897000 11.754300 -0.000000 0.000003 0.000695 0.154967 -10.292000 -2.192510 6.469440 -0.000001 -173.807000 7.365630 -178.255000 -39.081100 -0.002282 -0.040193 0.067463 -0.279623 12.917000 -40.985400 0.000008 0.000006 2.331140 -1.906310 -69.280000 -11.754300 -0.000006 -0.000006 -0.011044 0.278949 -5.238250
